<svg xmlns="http://www.w3.org/2000/svg" enable-background="new 0 0 67 67" viewBox="0 0 67 67" id="web-development"><path fill="#D9DADF" d="M5.53989 35.77707c-.11133 0-.20264-.08936-.20459-.20117l-.08594-5.00732c-.00684-.92383.69971-2.14355 1.51172-2.6123l1.62549-.93799c.09717-.05615.22217-.02295.2793.0752.05615.09766.02295.22266-.0752.2793l-1.62549.93799c-.67725.39063-1.3125 1.48535-1.30664 2.25293l.08594 5.00537c.00195.11279-.08838.20605-.20117.20801C5.54233 35.77707 5.54087 35.77707 5.53989 35.77707zM9.65806 26.72532c-.07031 0-.13916-.03662-.17725-.10254-.05615-.09766-.02295-.22266.0752-.2793l1.24609-.71924c.09766-.05615.22217-.02344.2793.0752.05615.09766.02295.22266-.0752.2793l-1.24609.71924C9.72788 26.71653 9.69272 26.72532 9.65806 26.72532z"></path><path fill="#383838" d="M5.44517,66.00022c-0.33105,0-0.63721-0.09375-0.89893-0.28174
				c-0.22412-0.16113-0.27539-0.47363-0.11377-0.69775c0.16064-0.22412,0.47266-0.27686,0.69775-0.11377
				c0.22021,0.15723,0.57959,0.11377,0.9873-0.12207l39.20654-22.63135c0.95801-0.55859,1.76904-1.96387,1.76904-3.06641
				l-0.01025-2.71045c-0.00098-0.27637,0.22217-0.50098,0.49805-0.50195c0,0,0.00146,0,0.00195,0
				c0.27539,0,0.49902,0.22266,0.5,0.49805l0.01025,2.7124c0,1.46484-0.99561,3.19189-2.26709,3.93311L6.61753,65.6511
				C6.21518,65.88352,5.81479,66.00022,5.44517,66.00022z"></path><path fill="#908FA1" d="M26.82924,50.64366c0,0.62966-0.44968,1.39911-0.99926,1.70881
				c-0.53958,0.32971-0.98926,0.0699-0.98926-0.56952c0-0.61966,0.43968-1.39911,0.98926-1.71881
				C26.37956,49.75443,26.81924,50.01424,26.82924,50.64366z"></path><path fill="#FFF" d="M14.16533,46.90303l-2.06867-1.20602l-0.0882-26.91194v-0.96091c0-1.32354,0.9216-2.94126,2.07849-3.608
			L35.62673,1.7845c0.57848-0.33331,1.10788-0.36275,1.49026-0.13727l1.98041,1.15695
			c0.02944,0.00981,0.05888,0.02944,0.08826,0.04907c0.37257,0.21566,0.60786,0.67643,0.60786,1.33324v0.96079l0.09808,26.91206
			L14.17514,46.90303"></path><polygon fill="#F4F4F4" points="39.89 32.062 15.21 46.308 34.384 8.245 39.79 5.148"></polygon><path fill="#D9DADF" d="M37.69701,2.99186c1.15177-0.66497,2.09378-0.12808,2.09753,1.1954l0.00271,0.95656L14.08568,19.98841
			l-0.00271-0.95656c-0.00375-1.32348,0.92588-2.94097,2.07765-3.60595L37.69701,2.99186z"></path><polygon fill="#FFF" points="35.822 13.205 35.823 13.511 21.465 21.8 21.464 21.494"></polygon><polygon fill="#FFF" points="35.825 14.461 35.826 14.762 21.469 23.051 21.468 22.751"></polygon><polygon fill="#FFF" points="35.818 11.948 35.819 12.254 21.462 20.543 21.461 20.237"></polygon><path fill="#662DDC" d="M17.65072 25.80162l2.91999-1.68586c-.0026-.91805-.65154-1.30968-1.46001-.84291C18.29748 23.74236 17.64812 24.88357 17.65072 25.80162M19.10568 21.50228c-.36143.20867-.64581.71221-.64467 1.11661.00118.41528.28746.58393.6489.37526.35668-.20593.64107-.70406.63989-1.11934C19.74866 21.47041 19.46236 21.29635 19.10568 21.50228"></path><path fill="#EF473E" d="M17.36261 16.55457c0 .43893-.30379.95642-.68634 1.17012-.37123.22496-.67502.04505-.67502-.38249 0-.41627.30379-.94502.67502-1.15886C17.05882 15.95825 17.36261 16.13844 17.36261 16.55457zM19.78148 15.15949c0 .42767-.29253.95642-.67501 1.17012-.37129.2137-.67502.04505-.67502-.39375 0-.41627.29246-.94502.67502-1.15886C19.47775 14.55191 19.78148 14.74336 19.78148 15.15949zM22.21167 13.75315c0 .4388-.29253.95642-.67508 1.17012-.37123.22496-.67502.04505-.67502-.38262-.01126-.41613.29253-.95615.66382-1.15872C21.90788 13.15683 22.21167 13.33702 22.21167 13.75315z"></path><path fill="#F9D893" d="M20.75942,30.45305c0,0.65611-0.43741,1.4301-1.00943,1.74964
				c-0.55508,0.33637-1.00933,0.06736-1.00933-0.57212c-0.01684-0.62223,0.43741-1.42969,0.99259-1.7326
				C20.30517,29.5614,20.75942,29.83082,20.75942,30.45305z"></path><polygon fill="#DAE4C9" points="37.122 30.286 16.887 41.997 16.877 34.192 19.934 34.312 23.312 31.125 27.169 31.245 30.636 26.238 34.683 26.228 37.112 22.851"></polygon><g><path fill="#979AAB" d="M65.60728 50.34446c-.00049-.02173-.01178-.03992-.01752-.06018-.00586-.02112-.00702-.04333-.01807-.06189-.01141-.01929-.03101-.03149-.0473-.04724-.01459-.01404-.02454-.03223-.0426-.0426-.00098-.00049-.00214-.00024-.00311-.00073-.00116-.00073-.00159-.00208-.00275-.00269l-3.89991-2.104c-.07715-.04102-.17041-.04004-.24609.00537L38.90317 61.31907c-.03833.02246-.06879.05469-.0899.09204-.00763.01355-.00702.02991-.01202.04468-.00861.02515-.02051.04932-.02063.07666l-.00684 1.39014c-.00049.09277.0498.17773.13135.22168l3.89941 2.1045c.03711.02002.07764.02979.11865.02979.04395 0 .08838-.01172.12744-.03516l22.42676-13.28858c.07568-.04443.12207-.12549.12256-.21338l.00732-1.39063c0-.0011-.00079-.00195-.00079-.00305S65.60728 50.34568 65.60728 50.34446zM61.46323 48.53244l3.38623 1.82715-1.40113.8302-1.01416-.58557-.66302.38525 1.02063.58936-1.98395 1.17554-1.04016-.60059-.65576.3811 1.04651.60425-1.98407 1.17554-1.06598-.61548-.66302.38538 1.07245.61926-1.98395 1.17554-1.09198-.63049-.65576.3811 1.09833.63416-1.98407 1.17554-1.1178-.64539-.66302.38538 1.12427.64905-1.98389 1.17554-1.1438-.6604-.65582.3811 1.15015.66406-1.98401 1.17566-1.16968-.67529-.66302.38525 1.17615.67896-1.98395 1.17554-1.19562-.69019-.65582.3811 1.20197.69385-1.41205.83679-3.18781-1.72009-.19818-.10693L61.46323 48.53244zM39.27866 61.952l1.67407.9032 1.72632.93164-.00391.82373-3.40039-1.83545L39.27866 61.952zM65.10093 51.5969L43.17539 64.58848l.00201-.41223.00214-.39527 21.9253-12.9917L65.10093 51.5969zM35.68149 52.49192c-1.87384-1.08558-5.30935-1.42588-5.41015-1.36719-12.98028 7.49629-4.04856 2.33717-11.88983 6.86377-.43884.04792-.14704.98723-.23224 2.32959-.00391 1.34619.80713 2.55664 2.28271 3.4082 1.44873.83692 3.3916 1.27881 5.61865 1.27881 2.91504 0 5.91357-.771 8.22656-2.11524 2.33936-1.35986 3.68408-3.14209 3.68896-4.89014l.00586-2.08984c0-.00073-.00073-.00098-.00073-.00171 0-.00244.00073-.00513.00073-.00757C37.97104 54.55442 37.15757 53.34397 35.68149 52.49192zM37.47202 55.90061c.0013 1.91113-1.79019 3.50635-3.44385 4.46387-2.33473 1.35795-5.32748 2.05069-7.97217 2.05029-2.10889 0-4.01514-.43018-5.36816-1.21094-1.65546-.95618-1.97008-2.22829-1.9054-2.12817-.09867-.31562-.10122-.44113-.11469-.67371l3.27417-1.88965-.01727 2.00598c-.00098.08984.04688.17285.12451.21826l2.59961 1.51074c0 0 .00049 0 .00067.00024.00012 0 .00018.00024.00018.00024.0387.02197.08167.0332.12463.0332.00195 0 .00391 0 .00635 0 .00385.00024.00806-.00488.01196-.00488.03668-.00293.07373-.00964.10669-.02881l5.646-3.25928c.07764-.04443.12549-.12793.125-.21729l-.02216-5.02344c1.89447.06738 3.54754.46155 4.7829 1.17725C36.76548 53.69504 37.47104 54.72385 37.47202 55.90061zM30.16978 56.62766l-5.14746 2.97119c-.00072-.16298-.02244-5.11189-.0213-4.85205l5.14728-2.9707L30.16978 56.62766zM24.50223 55.03464c.00045.10268.02081 4.72611.02008 4.56079l-2.09619-1.21826.01807-2.15088C22.5443 56.16832 24.63541 54.95753 24.50223 55.03464zM37.46665 57.78098c-.03701.10021.40279 2.44242-3.44043 4.67627-2.23926 1.30127-5.14599 2.04786-7.97558 2.04786-2.10889 0-4.01563-.43018-5.36865-1.21143-2.39405-1.38206-1.98628-3.1539-2.03174-3.31982.41631.68608 1.09814 1.26638 1.79004 1.6665 1.44629.83496 3.38477 1.27637 5.60693 1.27637 2.68694 0 5.79832-.70005 8.23584-2.1167C35.46497 60.11389 36.81219 59.00263 37.46665 57.78098zM4.57895 64.06663L4.57163 61.4863l43.13428-24.90356c.11963-.06885.16064-.22168.09131-.34131s-.22168-.16162-.34131-.09131L4.56998 60.91013 4.48374 30.57199c-.00928-1.20068.84082-2.67139 1.89502-3.27881l5.40234-3.11792.00928 2.93359-2.52734 1.45972c-.68408.39453-1.21875 1.31787-1.21631 2.10254C8.14576 63.30387 8.1116 52.0488 8.11899 54.48362c.002.88089.68993 1.2944 1.46875.84473l33.52979-19.3667c.68164-.39307 1.21387-1.31738 1.21143-2.104l-.06201-21.88672-.00537-1.92969c-.00098-.42432-.15967-.74902-.4458-.91357-.28857-.16602-.6543-.13916-1.02783.07715l-2.7215 1.5719-.00995-2.92078 5.53564-3.19507c.4585-.27197.87842-.32275 1.18457-.14258.11719.06934.271.03076.34229-.08838.07031-.11865.03076-.27197-.08838-.34229-.46924-.27686-1.0708-.22559-1.69092.14209L40.05448 7.28 40.04721 5.1428l0 0-.00244-.95654c-.00208-.7384-.28076-1.28687-.74054-1.55151-.00159-.00098-.00153-.00317-.00311-.00415L39.30014 2.6301c-.64502-.37582-2.16258-1.26001-2.05908-1.19971-.47217-.27881-1.104-.23145-1.74219.13623L13.9647 14.00119c-1.24716.71856-2.20361 2.40893-2.20361 3.82471l.01819 5.77295-5.65051 3.26123c-.64423.37134-1.20642 1.00806-1.59576 1.72827l-2.34418-1.07837c-.12354-.05713-.27393-.00342-.33154.12256-.05762.12549-.00293.27393.12256.33154l2.33521 1.07434c-.21173.50769-.33514 1.03772-.3313 1.53601L4.07895 64.0676c0 .69775.26074 1.24902.71533 1.51221.03955.02295.08252.03369.12549.03369.08594 0 .16992-.04492.21631-.12451.06934-.11963.02832-.27246-.09082-.3418C4.74888 64.97581 4.57895 64.58225 4.57895 64.06663zM43.03794 9.63743c.20996-.12061.40234-.14893.52832-.07666.12354.07129.19482.24658.19531.48145l.00537 1.92969.06201 21.88672c.00146.60352-.43848 1.36865-.96143 1.67041L9.33774 54.89573c-.44316.25591-.71775.07767-.71875-.41309-.00739-2.43492.02677 8.82062-.07227-23.81348-.00146-.60059.44092-1.36426.96631-1.66797l2.27911-1.31641.05682 18.01465c.00049.08838.04736.17041.12402.21484l2.06885 1.20605c.00122.00073.00275.00037.00403.0011.00037.00012.00049.00061.00085.00085.03857.02197.08154.0332.12451.0332s.08643-.01123.125-.03369l25.71777-14.84814c.07764-.04443.12549-.12744.125-.21729l-.07062-20.70374L43.03794 9.63743zM12.26108 17.8259c0-.49524.1416-1.03174.37494-1.53955l1.74347.7627c-.33801.64404-.55005 1.34534-.55005 1.98535.12837 40.43488-.03669-13.17175.08691 27.43408l-1.56787-.91406C12.33935 42.65605 12.38119 55.93053 12.26108 17.8259zM39.54868 5.5759l.08984 26.3374L14.41977 46.47336l-.08984-26.3374 7.05408-4.07275L39.54868 5.5759zM39.54673 4.99973L22.392 14.90427l-8.05695 4.65161-.00098-.0918-.00122-.43262c-.00342-1.24512.87256-2.76563 1.95264-3.38916L37.82212 3.20823c.91858-.52917 1.71895-.202 1.72266.97949L39.54673 4.99973zM14.2147 14.4343L35.74887 1.99973c.4707-.27246.92236-.32422 1.23926-.13818l1.14502.66748c-.00513.00146-.01074.00537-.01587.00684-.03424.01025-.07013.03284-.10461.04504-.14624.05103-.29315.10535-.44495.19177L16.03257 15.20774c-.53339.31006-1.0166.81958-1.39819 1.40723l-1.76648-.7727C13.21891 15.25071 13.69193 14.73557 14.2147 14.4343z"></path><path fill="#979AAB" d="M16.74399,27.69162c0.03906,0.02197,0.08203,0.0332,0.125,0.0332s0.08643-0.01123,0.125-0.03369
				l20.20654-11.66699c0.07764-0.04443,0.125-0.12744,0.125-0.2168l-0.00977-5.60107c0-0.08936-0.04785-0.17139-0.125-0.21631
				c-0.07813-0.04395-0.17285-0.04443-0.25,0.00049L16.73423,21.65744c-0.07764,0.04443-0.125,0.12744-0.125,0.2168l0.00977,5.60107
				C16.61899,27.56467,16.66685,27.6467,16.74399,27.69162z M36.81675,10.63938l0.0083,5.02441L17.11802,27.04221l-0.0083-5.02441
				L36.81675,10.63938z"></path><polygon fill="#979AAB" points="35.819 12.477 35.818 12.171 21.461 20.46 21.462 20.766"></polygon><polygon fill="#979AAB" points="21.465 22.023 35.822 13.734 35.822 13.428 21.464 21.717"></polygon><polygon fill="#979AAB" points="21.469 23.274 35.826 14.985 35.825 14.685 21.468 22.974"></polygon><path fill="#979AAB" d="M37.20737,17.89182c-0.07715-0.04395-0.17236-0.04443-0.24951,0.00049l-20.20703,11.6665
				c-0.07764,0.04443-0.12549,0.12744-0.125,0.21729l0.04248,12.18164c0.00049,0.08887,0.04785,0.17139,0.12549,0.21582
				c0.03857,0.02197,0.08154,0.0332,0.12451,0.0332s0.08643-0.01123,0.125-0.03369l20.20703-11.6665
				c0.07764-0.04443,0.12549-0.12744,0.125-0.21729l-0.04248-12.18164C37.33237,18.01877,37.28501,17.93625,37.20737,17.89182z
				 M17.16685,41.52463l-0.04053-11.60547l19.70801-11.37842l0.04053,11.60547L17.16685,41.52463z"></path></g><g><path d="M65.54002 50.01902l-3.90003-2.1001c-.12-.06995-.26001-.05994-.37 0L38.84 61.21897c-.10999.07007-.17999.18994-.17999.32007L38.65 62.91892c0 .14014.07001.27002.19.34009l3.90002 2.09998c.10566.05267.26702.0585.37-.01001l22.43-13.28003C65.65 51.999 65.72001 51.87888 65.72001 51.749l.01001-1.40002C65.73002 50.20896 65.66001 50.08896 65.54002 50.01902zM64.97001 51.52903l-22.06 13.06995L39.4 62.69895l.01001-.93994 22.06-13.08008 3.51001 1.89001L64.97001 51.52903zM31.89097 51.0593l13.93506-8.04639c1.27246-.73633 2.26953-2.45947 2.26953-3.9248-.13918-45.8945-.09118-30.06543-.10156-33.48975-.00327-.99437-.5342-1.62699-.84399-1.72937l-2.45001-1.41003C44.16001 2.13889 43.46 2.18894 42.75003 2.59897L40.28 4.01902c0-.55903-.27966-1.26342-.81-1.59009H39.46c-.13979-.07011-.49408-.28618-2.08002-1.20996h-.00995c-.43325-.28023-1.1763-.3476-2 .13C6.08669 18.25529 15.92879 12.5731 13.84 13.77903c-1.48117.92453-2.33002 2.66628-2.33002 4.04993l.01001 2.79993-7.96997 4.6001c-1.28003.73999-2.28003 2.46997-2.28003 3.93994v33.48999c.01001.81006.31 1.42005.85004 1.72998l2.56 1.41016h.01001c.01782.01025.03967.00769.05859.01526.21631.11218.44879.1864.70337.1864.36816 0 .76611-.1167 1.16699-.34912l11.29102-6.51954L17.9 60.31894c0 1.45007.85004 2.7301 2.41003 3.63 3.80343 2.18469 10.12872 1.46539 14.09997-.83997 2.40002-1.40002 3.78998-3.27002 3.81-5.12v-2.08008C38.22001 52.94086 34.90665 51.41611 31.89097 51.0593zM12.50998 17.82895c0-1.0191.60861-2.35494 1.83002-3.17004 2.20884-1.27625-7.98737 4.61506 21.53003-12.43994.39996-.22998.75-.28003 1-.14001l2.06 1.20007c.46968.23508.33859 1.16888.35999 1.31995.13663 37.13102.08998 24.45376.09998 27.17004L14.17002 46.32895l-1.57001-.92004C12.59081 42.81587 12.53229 24.72394 12.50998 17.82895zM6.11802 64.78587c-.40625.23535-.76465.27832-.98193.11816-.02765-.02039-.05951-.02783-.08948-.04175l-.05658-.03333H4.98002l-2.37-1.30994C2.4 63.3989 2.26999 63.07895 2.26999 62.65891V29.16892c0-1.10986.81-2.51001 1.78003-3.06995l7.46997-4.30994.08002 23.90991c0 .43514.42911.50179.67999.68994l1.63.95007c.15857.07941.35881.08042.52002 0L40.13999 32.499c.14483-.07241.25-.27802.25-.43994L40.29001 5.17893l2.96002-1.70996c.37994-.21997.72998-.27002.94995-.14001L46.65 4.73899c.00702.00708.01825.00635.0282.00708.00293.00208.00421.00549.0072.00757.19482.13672.30713.4458.30859.84766.01039 3.42422-.03762-12.40439.10156 33.48877 0 1.10205-.81055 2.50195-1.77002 3.05713C31.0891 50.36733 26.17814 53.20147 6.11802 64.78587zM37.22001 57.98899C37.19999 59.44895 35.96 61.03904 33.9 62.249c-4.42981 2.55724-10.21304 2.49215-13.09997.82996C19.56003 62.35898 18.9 61.40891 18.9 60.31894l.02002-1.7699 11.40997-6.58008c2.82644.02843 6.89001 1.1236 6.89001 3.93994V57.98899z"></path></g></svg>